<svg xmlns="http://www.w3.org/2000/svg" xmlns:xlink="http://www.w3.org/1999/xlink" xmlns:lucid="lucid" width="2868.16" height="989.77"><g transform="translate(2220.2317708333335 -259.5)" lucid:page-tab-id="0_0"><path d="M-2500 0h3500v1500h-3500z" fill="#fff"/><path d="M-280 840h120v120h-120V840z" stroke="#000" stroke-opacity="0" fill="#7aa116"/><path d="M-188.76 904.37l.56-4.12c5.33 3.2 5.4 4.54 5.4 4.54s-.96.74-5.96-.43zm-2.9-.84c-9.22-2.77-21.98-8.65-27.15-11.1v-.07c0-1.94-1.62-3.62-3.64-3.62s-3.63 1.68-3.63 3.62c0 2 1.6 3.6 3.63 3.6.9 0 1.7-.33 2.26-.83 6.14 2.85 18.82 8.65 28.1 11.42l-3.7 25.8v.24c0 2.26-10.1 6.38-26.5 6.38-16.64 0-26.8-4.12-26.8-6.4v-.24l-7.68-55.78c6.62 4.54 20.83 6.98 34.48 6.98 13.57 0 27.78-2.44 34.4-6.98l-3.8 26.97zm-65.9-32.85c.15-1.93 11.46-9.66 35.28-9.66s35.13 7.73 35.3 9.66v.68c-1.38 4.45-16.08 9.15-35.3 9.15-19.3 0-34-4.7-35.3-9.14v-.68zm73.56.1c0-5.22-14.94-12.78-38.28-12.78-23.34 0-38.28 7.56-38.28 12.77l.16 1.1 8.32 60.8c.16 6.8 18.33 9.33 29.8 9.33 14.2 0 29.32-3.28 29.48-9.32l3.63-25.37c2.02.5 3.64.76 4.93.76 1.78 0 3-.42 3.7-1.34.66-.67.82-1.5.66-2.44-.32-2.1-2.83-4.36-7.83-7.22l3.54-25.12.16-1.17z" stroke="#000" stroke-opacity="0" fill="#fff"/><use xlink:href="#a" transform="matrix(1,0,0,1,-310,969) translate(36.57118055555556 21.52777777777778)"/><use xlink:href="#b" transform="matrix(1,0,0,1,-310,969) translate(99.75477430555556 21.52777777777778)"/><use xlink:href="#c" transform="matrix(1,0,0,1,-310,969) translate(21.93901909722223 53.79340277777778)"/><use xlink:href="#d" transform="matrix(1,0,0,1,-310,969) translate(121.97157118055554 53.79340277777778)"/><path d="M-280 520h120v120h-120V520z" stroke="#000" stroke-opacity="0" fill="#8c4fff"/><path d="M-197.32 598.14c0-2.43-2.02-4.45-4.54-4.45-2.43 0-4.45 2-4.45 4.44 0 2.52 2 4.54 4.44 4.54 2.52 0 4.54-2.02 4.54-4.54zm3.02 0c0 4.2-3.36 7.56-7.56 7.56-4.1 0-7.47-3.36-7.47-7.56 0-4.1 3.36-7.47 7.47-7.47 4.2 0 7.56 3.36 7.56 7.47zm-40.15-21.58c0-2.52-2-4.54-4.45-4.54-2.52 0-4.54 2.02-4.54 4.54 0 2.43 2.02 4.45 4.54 4.45 2.44 0 4.45-2 4.45-4.44zm3.03 0c0 4.1-3.36 7.47-7.48 7.47-4.12 0-7.48-3.36-7.48-7.47 0-4.12 3.36-7.56 7.48-7.56 4.12 0 7.48 3.44 7.48 7.56zm11-23.52c0 2.43 2.02 4.45 4.54 4.45 2.43 0 4.45-2.03 4.45-4.46 0-2.52-2.02-4.54-4.45-4.54-2.52 0-4.54 2.02-4.54 4.54zm-3.02 0c0-4.2 3.44-7.56 7.56-7.56 4.1 0 7.47 3.36 7.47 7.56 0 4.1-3.37 7.47-7.48 7.47-4.12 0-7.56-3.35-7.56-7.46zm42.42 26.96c0-13.94-7.48-26.8-19.5-33.77-2.1.5-4.2 1.1-6.8 2.02l-1-2.86c1.34-.5 2.52-.85 3.7-1.18-4.8-2.1-10.1-3.2-15.38-3.2-2.52 0-5.04.26-7.48.76 1.77 1 3.36 2.02 4.88 3.2l-1.85 2.34c-2.1-1.6-4.37-2.94-7.23-4.53-14.78 4.6-25.36 17.63-27.04 32.92 3.1-.68 6.04-1 9.32-1.1l.08 3.03c-3.44.08-6.38.42-9.66 1.17V580c0 13.02 6.4 24.95 16.97 32.17-1.86-5.63-2.86-10.92-2.86-16.04 0-2.94.58-5.38 1.1-7.9.07-.67.24-1.26.32-1.85l2.94.6c-.08.58-.25 1.25-.33 1.84-.5 2.52-1 4.7-1 7.3 0 5.9 1.25 11.94 3.94 18.5 5.55 2.93 11.6 4.36 17.9 4.36 4.12 0 8.15-.68 12-1.94 1.52-2.94 2.62-5.8 3.62-8.98l2.86.84c-.67 2.35-1.5 4.45-2.44 6.63 2.44-1.1 4.7-2.43 6.9-4.03-.5-1.26-1.1-2.52-1.7-3.78l2.7-1.34c.5 1.1 1 2.18 1.43 3.2 8.65-7.4 13.6-18.07 13.6-29.58zm3.02 0c0 13.1-5.96 25.2-16.3 33.26-2.6 1.94-5.37 3.62-8.3 4.96-1.27.6-2.53 1.1-3.88 1.5-4.28 1.52-8.82 2.28-13.52 2.28-6.9 0-13.78-1.68-19.82-4.96-13.7-7.3-22.18-21.5-22.18-37.04 0-1 0-1.85.08-2.52 1-17.56 13.02-32.68 29.9-37.72 3.87-1.17 7.9-1.76 12.02-1.76 7.22 0 14.28 1.85 20.5 5.38 13.27 7.4 21.5 21.42 21.5 36.62zm-46.03-21.84c-3.1 2.77-5.63 5.7-8.5 10.16l-2.5-1.6c3.02-4.7 5.7-7.9 9.07-10.74l1.93 2.18zm-4.54 19.5c7.3 2.5 13.7 6.46 20 12.5l-2.1 2.2c-5.97-5.72-12.02-9.5-18.9-11.86l1-2.85zM-208.5 560c5.64 8.58 8.74 17.98 9.42 27.98l-3.03.25c-.6-9.5-3.62-18.48-8.9-26.54l2.5-1.7z" stroke="#000" stroke-opacity="0" fill="#fff"/><use xlink:href="#e" transform="matrix(1,0,0,1,-310,649) translate(47.16145833333334 21.52777777777778)"/><use xlink:href="#f" transform="matrix(1,0,0,1,-310,649) translate(32.06271701388889 53.79340277777778)"/><path d="M-219.53 823.62h-.94V705.27h.94zm0-171.62h-.94v-11.5h.94z" stroke="#3a414a" stroke-width=".05" fill="#3a414a"/><path d="M-219.53 640.5h-.94v-.5h.94z" fill="#3a414a"/><path stroke="#3a414a" stroke-width=".05" fill="#3a414a"/><path d="M-220 838.38l-4.63-14.26h9.26z" fill="#3a414a"/><path d="M-220 839.92l-5.3-16.28h10.6zm-3.98-15.33l3.98 12.25 3.98-12.26z" stroke="#3a414a" stroke-width=".05" fill="#3a414a"/><path d="M-280 260h120v120h-120z" fill-opacity="0"/><path d="M-220 260c39.96 0 60 20.04 60 60s-20.04 60-60 60-60-20.04-60-60 20.04-60 60-60z" stroke="#000" stroke-opacity="0"/><path d="M-219.94 297.48c5.18 0 9.38 4.2 9.38 9.38 0 5.18-4.2 9.38-9.38 9.38-5.18 0-9.38-4.2-9.38-9.38 0-5.18 4.2-9.38 9.38-9.38m0-3.76c-7.25 0-13.14 5.9-13.14 13.14 0 7.25 5.9 13.14 13.14 13.14 7.25 0 13.14-5.9 13.14-13.14 0-3.5-1.4-6.83-3.84-9.3-2.47-2.45-5.8-3.84-9.3-3.84zM-201.16 346.28h-3.76v-9.4c0-2.5-.97-4.88-2.74-6.64-1.76-1.76-4.17-2.75-6.65-2.75h-11.27c-5.2 0-9.4 4.18-9.4 9.37v9.4h-3.75v-9.4c0-7.26 5.9-13.15 13.15-13.15h11.26c7.24 0 13.14 5.9 13.14 13.15v9.4z" stroke="#000" stroke-opacity="0" fill="#fff"/><path d="M-250 290h60v60h-60v-60z" stroke="#000" stroke-opacity="0" fill-opacity="0"/><use xlink:href="#g" transform="matrix(1,0,0,1,-310,389) translate(65.20616319444444 21.52777777777778)"/><path d="M-219.53 503.62h-.94V413h.94zm0-111.62h-.94v-11.5h.94z" stroke="#3a414a" stroke-width=".05" fill="#3a414a"/><path d="M-219.53 380.5h-.94v-.5h.94z" fill="#3a414a"/><path stroke="#3a414a" stroke-width=".05" fill="#3a414a"/><path d="M-220 518.38l-4.63-14.26h9.26z" fill="#3a414a"/><path d="M-220 519.92l-5.3-16.28h10.6zm-3.98-15.33l3.98 12.25 3.98-12.26z" stroke="#3a414a" stroke-width=".05" fill="#3a414a"/><path d="M500 520h120v120H500V520z" stroke="#000" stroke-opacity="0" fill="#dd344c"/><path d="M525.48 573.68h19.32v-2.96h-19.32v2.96zm66.6 21.7l-10 9.97-4.52-4.52-2.1 2.1 5.54 5.54c.34.3.67.47 1.1.47.33 0 .75-.16 1-.47l11.1-11-2.1-2.1zm6.8 8.18c-.32 2.8-1.42 5.38-3.26 7.48-1.26 1.56-2.94 2.8-4.7 3.67-2.44 1.1-5.05 1.57-7.74 1.26-2.6-.4-5.04-1.4-7.05-2.97-3.95-3.13-5.88-7.96-5.3-12.88.6-4.68 3.37-8.73 7.57-10.92 2-1 4.2-1.56 6.46-1.56.6 0 1.18 0 1.68.08 4.7.55 8.82 3.43 10.92 7.65 1.26 2.5 1.77 5.38 1.43 8.2zm1.27-9.52c-2.6-5.15-7.56-8.58-13.2-9.28-3.43-.4-6.87.23-9.9 1.8-5.04 2.57-8.48 7.56-9.15 13.17-.76 6 1.68 11.86 6.38 15.6 2.44 1.95 5.38 3.12 8.57 3.5.67.1 1.34.17 2 .17 2.53 0 5.05-.55 7.32-1.64 2.2-1 4.12-2.57 5.7-4.37 2.2-2.58 3.63-5.7 3.96-9.13.42-3.36-.17-6.8-1.68-9.83zm-59.8-11.4h5.96v-2.95h-5.96v2.95zm-14.87 0h11.84v-2.95h-11.84v2.95zm-1.35-38.68h66.6c1.78 0 3.2 1.72 3.2 3.9v11h-4.45v-7.5c0-.77-.67-1.47-1.5-1.47H553.7c-.76 0-1.43.7-1.43 1.47v7.5h-31.33v-11c0-2.1 1.5-3.9 3.2-3.9zm46.8 14.43c3.43 0 6.2 2.8 6.2 6.23 0 2.27-1.25 4.3-3.2 5.4-1.92 1-4.2 1-6.12 0-1.92-1.1-3.18-3.13-3.18-5.4 0-3.43 2.77-6.24 6.3-6.24zm-50 32.3v-28.87h31.34v25.27c0 .78.67 1.48 1.43 1.48h15.62v-2.96H556.9c.08-5.93 4.02-11.08 9.74-12.72 2.68 1.17 5.8 1.25 8.48 0 3.2.94 6.05 3.04 7.8 6l2.53-1.55c-1.76-2.97-4.53-5.3-7.64-6.63 1.44-1.64 2.36-3.82 2.36-6.1 0-5.06-4.2-9.2-9.24-9.2-5.12 0-9.32 4.14-9.32 9.2 0 2.28.92 4.38 2.35 6.02-3.95 1.72-7.06 4.84-8.74 8.74v-26.45h31.26v23.8h3.02v-14.9h4.46v22.3h3.02v-36.27c0-3.82-2.77-6.86-6.22-6.86h-66.6c-3.37 0-6.14 3.04-6.14 6.86v42.83c0 3.73 2.77 6.77 6.13 6.77h40.07v-2.96h-40.07c-1.68 0-3.2-1.7-3.2-3.8z" stroke="#000" stroke-opacity="0" fill="#fff"/><use xlink:href="#h" transform="matrix(1,0,0,1,470,649) translate(2.999131944444457 21.52777777777778)"/><use xlink:href="#i" transform="matrix(1,0,0,1,470,649) translate(94.92621527777777 21.52777777777778)"/><path d="M-159.5 526.67h643.12" stroke="#3a414a" fill="none"/><path d="M-159.5 527.14h-.5v-.95h.5z" stroke="#3a414a" stroke-width=".05" fill="#3a414a"/><path d="M498.38 526.67l-14.26 4.63v-9.27z" stroke="#3a414a" fill="#3a414a"/><path d="M20 466a6 6 0 0 1 6-6h228a6 6 0 0 1 6 6v48a6 6 0 0 1-6 6H26a6 6 0 0 1-6-6z" fill="none"/><use xlink:href="#j" transform="matrix(1,0,0,1,20,460) translate(35.700954861111114 38.083767361111114)"/><use xlink:href="#k" transform="matrix(1,0,0,1,20,460) translate(128.7890625 38.083767361111114)"/><use xlink:href="#l" transform="matrix(1,0,0,1,20,460) translate(155.41666666666666 38.083767361111114)"/><path d="M499.5 580h-643.1" stroke="#3a414a" fill="none"/><path d="M500 580.48h-.5v-.96h.5z" stroke="#3a414a" stroke-width=".05" fill="#3a414a"/><path d="M-158.38 580l14.26-4.63v9.26z" stroke="#3a414a" fill="#3a414a"/><path d="M-740 532.5h100v95h-100z" fill-opacity="0"/><path d="M-655 532.5c1.9 0 3.9.38 5.7 1.14 1.9.66 3.5 1.8 4.9 3.23 2.9 2.95 4.4 6.46 4.4 10.45v10.07c0 1.5-.5 2.75-1.5 3.8-1 .84-2.2 1.22-3.5 1.22-1.3 0-2.6-.38-3.6-1.23-.4-.5-.8-1.15-1.1-1.72-.2-.66-.3-1.43-.3-2.1v-10.06c0-.57-.1-1.24-.4-1.8-.2-.57-.6-1.14-1.1-1.52-.4-.48-1-.86-1.6-1.05-.6-.3-1.3-.38-1.9-.38h-70c-.6 0-1.3.1-1.9.38-.6.2-1.2.57-1.6 1.04-.5.38-.9.95-1.1 1.5-.3.6-.4 1.25-.4 1.82v5.03h25.1c1.4 0 2.6.48 3.5 1.52.5.48.9.96 1.1 1.62.3.56.4 1.23.4 1.9 0 1.5-.5 2.75-1.5 3.8-1 .84-2.2 1.22-3.5 1.22H-730v45.23c0 1.33.5 2.56 1.5 3.5.4.5 1 .87 1.6 1.15.6.2 1.3.38 1.9.38h12.6c1.4 0 2.5.48 3.5 1.43 1 .86 1.5 2 1.5 3.52 0 .66-.1 1.33-.4 2-.2.56-.6 1.13-1.1 1.6-1 .87-2.2 1.25-3.5 1.25H-725c-4 0-7.6-1.43-10.6-4.38-1.4-1.34-2.5-2.95-3.3-4.75-.7-1.8-1.1-3.8-1.1-5.7V547.3c0-4 1.5-7.5 4.4-10.45 3-2.95 6.6-4.37 10.6-4.37h70zm-19.7 24.9c4.9 0 9.4.94 13.6 2.94 4.2 1.8 7.8 4.27 10.9 7.5 3.2 3.23 5.7 6.93 7.5 11.12 1.8 4.17 2.7 8.74 2.7 13.58 0 4.66-.9 9.3-2.7 13.6-1.8 4.16-4.3 7.97-7.5 11.1-3.3 3.23-7.1 5.8-11.3 7.5-4.3 1.9-8.9 2.76-13.6 2.76-4.6 0-9.2-.95-13.5-2.75-4.2-1.72-7.9-4.28-11.1-7.5-3.2-3.14-5.7-6.95-7.5-11.13-1.8-4.27-2.8-8.92-2.7-13.58 0-4.84.9-9.4 2.7-13.58 1.7-4.2 4.1-7.9 7.3-11.12 3.2-3.13 6.9-5.7 11-7.5 4.3-1.9 8.9-2.95 13.6-2.95h.6zm19.7 20.13c-2.7-3.42-5.7-5.8-9.2-7.4.7 1.13 1.2 2.37 1.7 3.6.5 1.14 1.1 2.38 1.6 3.8h5.9zm-20.1-6.37c-.9 1.72-2 3.8-3.1 6.37h6.5c-1.1-2.85-2.3-4.94-3.4-6.37zm-24.8 21.38v2.57l.4 2.48h8.1c-.1-.86-.2-1.72-.2-2.48v-5.03c0-.86.1-1.7.2-2.57h-8.1l-.4 2.57v2.47zm5 15.1c2.6 3.33 5.7 5.8 9.2 7.32-.7-1.14-1.3-2.2-1.9-3.33-.4-1.42-.9-2.65-1.5-4h-5.8zm5.8-30.1c.6-1.43 1.1-2.67 1.5-3.8.5-1.25 1.2-2.48 1.9-3.62-3.5 1.62-6.6 4-9.2 7.4h5.8zm14 36.38c.7-.95 1.3-2 1.7-2.95l1.7-3.33h-6.5l3.1 6.27zm6.3-16.34c.3-.86.4-1.72.4-2.48v-5.03c0-.86-.1-1.7-.4-2.57h-12.3c-.3.86-.4 1.72-.4 2.57v5.03c0 .76.1 1.62.4 2.48h12.3zm4.6 17.38c3.5-1.52 6.5-4 9.2-7.32h-5.9c-.5 1.34-1.1 2.66-1.6 4-.5 1.13-1 2.27-1.7 3.32zm13.8-17.38c.1-.86.2-1.72.2-2.48.2-1.7.2-3.42 0-5.03 0-.86-.1-1.7-.2-2.57h-8.2c.2.86.2 1.72.2 2.57v5.03c0 .76 0 1.62-.2 2.48h8.2z" fill="url(#m)"/><use xlink:href="#n" transform="matrix(1,0,0,1,-770,636.5) translate(19.11675347222222 21.52777777777778)"/><use xlink:href="#o" transform="matrix(1,0,0,1,-770,636.5) translate(87.62803819444446 21.52777777777778)"/><path d="M-280.5 580h-343.12" stroke="#3a414a" fill="none"/><path d="M-280 580.48h-.5v-.96h.5z" stroke="#3a414a" stroke-width=".05" fill="#3a414a"/><path d="M-638.38 580l14.26-4.63v9.26z" stroke="#3a414a" fill="#3a414a"/><path d="M-600 526a6 6 0 0 1 6-6h228a6 6 0 0 1 6 6v35.5a6 6 0 0 1-6 6h-228a6 6 0 0 1-6-6z" fill="none"/><use xlink:href="#p" transform="matrix(1,0,0,1,-600,520) translate(17.422960069444457 32.083767361111114)"/><use xlink:href="#q" transform="matrix(1,0,0,1,-600,520) translate(100.81054687500001 32.083767361111114)"/><use xlink:href="#o" transform="matrix(1,0,0,1,-600,520) translate(169.32183159722223 32.083767361111114)"/><path d="M-741.1 538.1a.1.1 0 0 0-.06-.13L-1028.4 418.5a.1.1 0 0 0-.12.06.1.1 0 0 0 .06.13l287.22 119.46a.1.1 0 0 0 .13-.06z" fill="none"/><path d="M-743 542.63l-150.67-67.9a.85.85 0 0 0-.9 1.42l15.76 13.4a.85.85 0 0 1-.9 1.43L-1019.47 428" stroke="#000" stroke-width="2" fill="none"/><path d="M-1017.4 423.45l-4.1 9.12-7.08-8.67z" stroke="#000" stroke-width="2"/><use xlink:href="#r" transform="matrix(0.9233160693144924,0.3840409302999297,-0.3840409302999297,0.9233160693144924,-1023.0860207008564,431.5398913824342) translate(86.35915798611111 21.52777777777778)"/><use xlink:href="#s" transform="matrix(0.9233160693144924,0.3840409302999297,-0.3840409302999297,0.9233160693144924,-1023.0860207008564,431.5398913824342) translate(129.41471354166669 21.52777777777778)"/><path d="M-746.23 618.46a.1.1 0 0 0-.13-.06l-285.62 123.25a.1.1 0 0 0-.06.13.1.1 0 0 0 .13.05L-746.3 618.6a.1.1 0 0 0 .05-.14z" fill="none"/><path d="M-744.3 622.95l-153.6 61.03a.85.85 0 0 0 .4 1.64l20.6-2a.85.85 0 0 1 .4 1.64l-142.44 56.6" stroke="#000" stroke-width="2" fill="none"/><path d="M-1020.8 737.2l3.7 9.3-11.14-.96z" stroke="#000" stroke-width="2"/><use xlink:href="#t" transform="matrix(0.9181675572194502,-0.3961922978424336,0.3961922978424336,0.9181675572194502,-1018.9325554925324,746.9103129083428) translate(67.18598090277779 21.52777777777778)"/><use xlink:href="#s" transform="matrix(0.9181675572194502,-0.3961922978424336,0.3961922978424336,0.9181675572194502,-1018.9325554925324,746.9103129083428) translate(148.587890625 21.52777777777778)"/><path d="M-1160 340h120v120h-120V340z" stroke="#000" stroke-opacity="0" fill="url(#u)"/><path d="M-1115.03 377.43h3.8v3.8h-3.8v18.63c0-.42.25-.9.58-1.24l5.62-5.6 2.64 2.63-4.28 4.3 4.3 4.28-2.65 2.63-5.62-5.6c-.33-.33-.58-.82-.58-1.32v18.7h3.8v3.8h-3.8v16.82c0 .66-.33 1.24-.9 1.65-.25.18-.58.26-1 .26-.24 0-.5-.08-.82-.17l-22.46-11.3c-.67-.33-1.08-.9-1.08-1.65v-54.33c0-.66.33-1.32.9-1.65l22.55-13.1c.57-.33 1.32-.33 1.9 0 .57.33.9 1 .9 1.65zm56.3-3.7v54.32c0 .74-.4 1.32-1.06 1.65l-22.45 11.3c-.33.08-.58.16-.83.16-.4 0-.74-.08-1-.25-.56-.4-.9-.98-.9-1.64v-16.8h-3.8v-3.8h3.8v-18.72c0 .5-.24 1-.57 1.32l-5.62 5.6-2.64-2.63 4.28-4.3-4.3-4.28 2.65-2.63 5.62 5.6c.33.33.58.82.58 1.24v-18.63h-3.8v-3.8h3.8v-16.8c0-.67.33-1.33.9-1.66.58-.33 1.33-.33 1.9 0l22.54 13.1c.58.33.9 1 .9 1.65zm-60-9.9l-18.84 10.97v52.1l18.83 9.3zm56.3 10.97l-18.83-10.97v72.38l18.83-9.3zm-32.04 16.4l-7.5 20.6-3.56-1.23 7.5-20.6zm-13.04-9.97v-3.8h5.6v3.8zm9.4 0v-3.8h5.6v3.8zm-9.4 41.22v-3.8h5.6v3.8zm9.4 0v-3.8h5.6v3.8z" stroke="#000" stroke-opacity="0" fill="#fff"/><use xlink:href="#v" transform="matrix(1,0,0,1,-1190,469) translate(-10.379774305555557 21.52777777777778)"/><path d="M-1540 340h120v120h-120V340z" stroke="#000" stroke-opacity="0" fill="#ed7100"/><path d="M-1497.92 438.98h-18.63l20.57-43 9.4 19.14-11.34 23.86zm3.32-47.13c-.24-.5-.8-.84-1.38-.84-.57 0-1.13.35-1.38.85l-22.92 47.97c-.24.5-.24 1 .08 1.5.25.43.73.68 1.3.68h21.95c.57 0 1.05-.34 1.3-.84l12.07-25.37c.16-.43.16-.93 0-1.27l-11.02-22.68zm52.16 47.13H-1461l-29.63-62.16c-.24-.5-.8-.84-1.38-.84h-12.08v-14.96h23.73l29.57 62.16c.24.5.73.84 1.3.84h7.04v14.96zm1.46-17.98h-7.53l-29.58-62.16c-.24-.5-.73-.84-1.3-.84h-26.24c-.8 0-1.46.67-1.46 1.5v18c0 .4.1.74.4 1.08.25.25.66.42 1.06.42h12.64l29.73 62.16c.24.5.8.84 1.37.84h20.9c.9 0 1.54-.67 1.54-1.5v-18c0-.83-.65-1.5-1.54-1.5z" stroke="#000" stroke-opacity="0" fill="#fff"/><use xlink:href="#w" transform="matrix(1,0,0,1,-1570,469) translate(26.800130208333343 21.52777777777778)"/><use xlink:href="#x" transform="matrix(1,0,0,1,-1570,469) translate(119.345703125 21.52777777777778)"/><path d="M-1160.5 400h-243.12" stroke="#3a414a" fill="none"/><path d="M-1160 400.48h-.5v-.96h.5z" stroke="#3a414a" stroke-width=".05" fill="#3a414a"/><path d="M-1418.38 400l14.26-4.63v9.26z" stroke="#3a414a" fill="#3a414a"/><path d="M-1410 346a6 6 0 0 1 6-6h228a6 6 0 0 1 6 6v48a6 6 0 0 1-6 6h-228a6 6 0 0 1-6-6z" fill="none"/><use xlink:href="#y" transform="matrix(1,0,0,1,-1410,340) translate(85.89084201388889 38.083767361111114)"/><path d="M-1940 340h120v120h-120V340z" stroke="#fff" stroke-opacity="0" stroke-width="2" fill="#3b48cc"/><path d="M-1859.6 404.78l-10.6 10.55c2-.56 3.65-1.2 5.5-2.24 1.1.63 1.68 1.67 1.9 2.87 0 2.96-6.2 6.16-15.4 7.43-3.05.4-5.55.56-8.6.56h-1.58c-12.95-.23-22.42-4.3-22.42-8 .17-1.2.82-2.15 1.9-2.87 5.02 2.8 13.18 4.47 22.1 4.47h.17l.92-3.2h-1.1c-8.8 0-16.98-1.76-21.28-4.47-1.74-1.12-2.72-2.4-2.72-3.44v-7.44c4.9 3.76 14.64 5.68 24 5.68 1.25 0 2.5 0 3.76-.08l.92-3.2c-1.63.08-3.1.16-4.68.16-13.7 0-24-4.23-24-8 .17-1.27.82-2.23 1.9-2.87 4.42 2.5 11.22 4 18.9 4.4l.1-3.2c-7.56-.4-14.42-2-18.18-4.47-1.74-1.04-2.66-2.3-2.72-3.43v-7.36c4.9 3.76 14.64 5.68 24 5.68h.33l1.74-3.2h-2.07c-13.7 0-24-4.16-24-8 0-3.75 10.3-8 24-8 4.85 0 8.98.5 13.72 1.6h8.8c-4.83-2.95-13.1-4.78-22.52-4.78-13.17 0-27.2 3.9-27.2 11.2V384c.1 1.92.92 3.5 2.44 4.7-1.52 1.3-2.34 2.9-2.45 4.8v12.8c.1 2 .92 3.6 2.44 4.88-1.52 1.2-2.34 2.8-2.45 4.8v13.1c.43 7.04 14.2 10.8 27.2 10.8s26.78-3.76 27.2-10.88V415.88c-.04-1.9-.9-3.6-2.44-4.78 1.53-1.2 2.34-2.88 2.45-4.8zm-3.2 23.98c0 3.76-10.28 8-24 8-13.7 0-24-4.16-24-8v-7.35c4.9 3.68 14.64 5.68 24 5.68s19.1-2 24-5.67z" stroke="#fff" stroke-opacity="0" stroke-width="2" fill="#fff"/><path d="M-1904 384.03c0 1.1-.9 2-2 2s-2-.9-2-2 .9-2 2-2 2 .9 2 2zM-1904 406.43c0 1.1-.9 2-2 2s-2-.9-2-2 .9-2 2-2 2 .9 2 2zM-1904 428.83c0 1.1-.9 2-2 2s-2-.9-2-2 .9-2 2-2 2 .9 2 2zM-1882.8 422.37c-.3 0-.53-.06-.82-.22-.64-.38-.92-1.14-.72-1.85l8.98-29.95h-9.06c-.88.06-1.6-.65-1.6-1.58 0-.27.04-.54.2-.76l9.58-19.2c.28-.56.8-.88 1.45-.88h20.82c.88-.06 1.6.65 1.64 1.52.04.22 0 .38-.04.6l-4.13 12.25h8.97c.88.05 1.6.75 1.6 1.63 0 .43-.16.76-.44 1.08l-35.2 36.82c-.32.38-.72.55-1.24.55zm1-35.18h8.6c.53 0 .97.2 1.3.6.27.43.4.92.23 1.4l-7.7 25.6 28.03-29.24h-7.46c-.88 0-1.64-.65-1.68-1.52 0-.22 0-.44.08-.6l4.1-12.3h-17.6z" stroke="#fff" stroke-opacity="0" stroke-width="2" fill="#fff"/><use xlink:href="#e" transform="matrix(1,0,0,1,-1970,469) translate(47.16145833333334 21.52777777777778)"/><use xlink:href="#z" transform="matrix(1,0,0,1,-1970,469) translate(31.248914930555564 53.79340277777778)"/><path d="M-1540.5 400h-263.12" stroke="#3a414a" fill="none"/><path d="M-1540 400.48h-.5v-.96h.5z" stroke="#3a414a" stroke-width=".05" fill="#3a414a"/><path d="M-1818.38 400l14.26-4.63v9.26z" stroke="#3a414a" fill="#3a414a"/><path d="M-1160 680h120v120h-120V680z" stroke="#000" stroke-opacity="0" fill="url(#A)"/><path d="M-1115.03 717.43h3.8v3.8h-3.8v18.63c0-.4.25-.9.58-1.24l5.62-5.6 2.64 2.63-4.28 4.3 4.3 4.28-2.65 2.63-5.62-5.6c-.33-.33-.58-.83-.58-1.32v18.7h3.8v3.8h-3.8v16.82c0 .66-.33 1.24-.9 1.65-.25.18-.58.26-1 .26-.24 0-.5-.08-.82-.16l-22.46-11.3c-.67-.33-1.08-.9-1.08-1.65v-54.33c0-.65.33-1.32.9-1.64l22.55-13.1c.57-.34 1.32-.34 1.9 0 .57.32.9.98.9 1.64zm56.3-3.7v54.32c0 .74-.4 1.32-1.06 1.65l-22.45 11.3c-.33.08-.58.16-.83.16-.4 0-.74-.08-1-.25-.56-.4-.9-.98-.9-1.64v-16.8h-3.8v-3.8h3.8v-18.72c0 .5-.24 1-.57 1.32l-5.62 5.6-2.64-2.63 4.28-4.3-4.3-4.28 2.65-2.63 5.62 5.6c.33.33.58.83.58 1.24v-18.63h-3.8v-3.8h3.8v-16.8c0-.67.33-1.33.9-1.66.58-.33 1.33-.33 1.9 0l22.54 13.1c.58.33.9 1 .9 1.65zm-60-9.9l-18.84 10.97v52.1l18.83 9.3zm56.3 10.97l-18.83-10.97v72.38l18.83-9.3zm-32.04 16.4l-7.5 20.6-3.56-1.22 7.5-20.62zm-13.04-9.97v-3.8h5.6v3.8zm9.4 0v-3.8h5.6v3.8zm-9.4 41.22v-3.8h5.6v3.8zm9.4 0v-3.8h5.6v3.8z" stroke="#000" stroke-opacity="0" fill="#fff"/><use xlink:href="#B" transform="matrix(1,0,0,1,-1190,809) translate(50.11827256944445 21.52777777777778)"/><path d="M-1530 680h120v120h-120V680z" stroke="#000" stroke-opacity="0" fill="#ed7100"/><path d="M-1487.92 778.98h-18.63l20.57-43 9.4 19.14-11.34 23.86zm3.32-47.13c-.24-.5-.8-.84-1.38-.84-.57 0-1.13.35-1.38.85l-22.92 47.97c-.24.5-.24 1 .08 1.5.25.43.73.68 1.3.68h21.95c.57 0 1.05-.34 1.3-.84l12.07-25.37c.16-.43.16-.93 0-1.27l-11.02-22.68zm52.16 47.13H-1451l-29.63-62.16c-.24-.5-.8-.84-1.38-.84h-12.08v-14.96h23.73l29.57 62.16c.24.5.73.84 1.3.84h7.04v14.96zm1.46-17.98h-7.53l-29.58-62.16c-.24-.5-.73-.84-1.3-.84h-26.24c-.8 0-1.46.67-1.46 1.5v18c0 .4.1.74.4 1.08.25.25.66.42 1.06.42h12.64l29.73 62.16c.24.5.8.84 1.37.84h20.9c.9 0 1.54-.67 1.54-1.5v-18c0-.83-.65-1.5-1.54-1.5z" stroke="#000" stroke-opacity="0" fill="#fff"/><use xlink:href="#w" transform="matrix(1,0,0,1,-1560,809) translate(7.849392361111114 21.52777777777778)"/><use xlink:href="#C" transform="matrix(1,0,0,1,-1560,809) translate(100.39496527777777 21.52777777777778)"/><path d="M-1420 686a6 6 0 0 1 6-6h228a6 6 0 0 1 6 6v48a6 6 0 0 1-6 6h-228a6 6 0 0 1-6-6z" fill="none"/><use xlink:href="#y" transform="matrix(1,0,0,1,-1420,680) translate(85.89084201388889 38.083767361111114)"/><path d="M-1160.5 740h-233.12" stroke="#3a414a" fill="none"/><path d="M-1160 740.48h-.5v-.96h.5z" stroke="#3a414a" stroke-width=".05" fill="#3a414a"/><path d="M-1408.38 740l14.26-4.63v9.26z" stroke="#3a414a" fill="#3a414a"/><path d="M-1840 680h120v120h-120V680z" stroke="#000" stroke-opacity="0" fill="#7aa116"/><path d="M-1748.76 744.37l.56-4.12c5.33 3.2 5.4 4.54 5.4 4.54s-.96.74-5.96-.43zm-2.9-.84c-9.22-2.77-21.98-8.65-27.15-11.1v-.07c0-1.94-1.62-3.62-3.64-3.62s-3.63 1.68-3.63 3.62c0 2 1.6 3.6 3.63 3.6.9 0 1.7-.33 2.26-.83 6.14 2.85 18.82 8.65 28.1 11.42l-3.7 25.8v.24c0 2.26-10.1 6.38-26.5 6.38-16.64 0-26.8-4.12-26.8-6.4v-.24l-7.68-55.78c6.62 4.54 20.83 6.98 34.48 6.98 13.57 0 27.78-2.44 34.4-6.98l-3.8 26.97zm-65.9-32.85c.15-1.93 11.46-9.66 35.28-9.66s35.13 7.73 35.3 9.66v.68c-1.38 4.45-16.08 9.15-35.3 9.15-19.3 0-34-4.7-35.3-9.14v-.68zm73.56.1c0-5.22-14.94-12.78-38.28-12.78-23.34 0-38.28 7.56-38.28 12.77l.16 1.1 8.32 60.8c.16 6.8 18.33 9.33 29.8 9.33 14.2 0 29.32-3.28 29.48-9.32l3.63-25.37c2.02.5 3.64.76 4.93.76 1.78 0 3-.42 3.7-1.34.66-.67.82-1.5.66-2.44-.32-2.1-2.83-4.36-7.83-7.22l3.54-25.12.16-1.17z" stroke="#000" stroke-opacity="0" fill="#fff"/><use xlink:href="#D" transform="matrix(1,0,0,1,-1870,809) translate(10.345052083333343 21.52777777777778)"/><use xlink:href="#E" transform="matrix(1,0,0,1,-1870,809) translate(94.01475694444444 21.52777777777778)"/><path d="M-1530.5 740h-173.12" stroke="#3a414a" fill="none"/><path d="M-1530 740.48h-.5v-.96h.5z" stroke="#3a414a" stroke-width=".05" fill="#3a414a"/><path d="M-1718.38 740l14.26-4.63v9.26z" stroke="#3a414a" fill="#3a414a"/><path d="M-1740 686a6 6 0 0 1 6-6h228a6 6 0 0 1 6 6v48a6 6 0 0 1-6 6h-228a6 6 0 0 1-6-6z" fill="none"/><g><use xlink:href="#F" transform="matrix(1,0,0,1,-1740,680) translate(84.12217881944446 38.083767361111114)"/></g><path d="M-1840 1060h120v120h-120v-120z" stroke="#000" stroke-opacity="0" fill="#ed7100"/><path d="M-1797.92 1158.98h-18.63l20.57-43 9.4 19.14-11.34 23.86zm3.32-47.13c-.24-.5-.8-.84-1.38-.84-.57 0-1.13.35-1.38.85l-22.92 47.97c-.24.5-.24 1 .08 1.5.25.43.73.68 1.3.68h21.95c.57 0 1.05-.34 1.3-.84l12.07-25.37c.16-.43.16-.93 0-1.27l-11.02-22.68zm52.16 47.13H-1761l-29.63-62.16c-.24-.5-.8-.84-1.38-.84h-12.08v-14.96h23.73l29.57 62.16c.24.5.73.84 1.3.84h7.04v14.96zm1.46-17.98h-7.53l-29.58-62.16c-.24-.5-.73-.84-1.3-.84h-26.24c-.8 0-1.46.67-1.46 1.5v18c0 .4.1.74.4 1.08.25.25.66.42 1.06.42h12.64l29.73 62.16c.24.5.8.84 1.37.84h20.9c.9 0 1.54-.67 1.54-1.5v-18c0-.83-.65-1.5-1.54-1.5z" stroke="#000" stroke-opacity="0" fill="#fff"/><g><use xlink:href="#w" transform="matrix(1,0,0,1,-1870,1189) translate(5.440538194444457 21.52777777777778)"/><use xlink:href="#G" transform="matrix(1,0,0,1,-1870,1189) translate(97.98611111111111 21.52777777777778)"/><use xlink:href="#H" transform="matrix(1,0,0,1,-1870,1189) translate(58.044704861111114 53.79340277777778)"/></g><g><path d="M-1734.9 790a.1.1 0 0 0-.1.1v269.8a.1.1 0 0 0 .1.1.1.1 0 0 0 .1-.1V790.1a.1.1 0 0 0-.1-.1z" fill="none"/><path d="M-1730 790l-4.8 142.5a.97.97 0 0 0 1.88.37l5.84-15.74a.97.97 0 0 1 1.88.37l-4.4 130.5" stroke="#000" stroke-width="2" fill="none"/><path d="M-1734.6 1047.84l10 .34-5.33 9.82z" stroke="#000" stroke-width="2"/></g><g><use xlink:href="#I" transform="matrix(6.123233995736766e-17,-1,1,6.123233995736766e-17,-1725,1050.0000000000005) translate(90.52821180555556 21.52777777777778)"/></g><path d="M-2200 1060h120v120h-120v-120z" stroke="#000" stroke-opacity="0" fill="#7aa116"/><path d="M-2108.76 1124.37l.56-4.12c5.33 3.2 5.4 4.54 5.4 4.54s-.96.74-5.96-.43zm-2.9-.84c-9.22-2.77-21.98-8.65-27.15-11.1v-.07c0-1.94-1.62-3.62-3.64-3.62s-3.63 1.68-3.63 3.62c0 2 1.6 3.6 3.63 3.6.9 0 1.7-.33 2.26-.83 6.14 2.85 18.82 8.65 28.1 11.42l-3.7 25.8v.24c0 2.26-10.1 6.38-26.5 6.38-16.64 0-26.8-4.12-26.8-6.4v-.24l-7.68-55.78c6.62 4.54 20.83 6.98 34.48 6.98 13.57 0 27.78-2.44 34.4-6.98l-3.8 26.97zm-65.9-32.85c.15-1.93 11.46-9.66 35.28-9.66s35.13 7.73 35.3 9.66v.68c-1.38 4.45-16.08 9.15-35.3 9.15-19.3 0-34-4.7-35.3-9.14v-.68zm73.56.1c0-5.22-14.94-12.78-38.28-12.78-23.34 0-38.28 7.56-38.28 12.77l.16 1.1 8.32 60.8c.16 6.8 18.33 9.33 29.8 9.33 14.2 0 29.32-3.28 29.48-9.32l3.63-25.37c2.02.5 3.64.76 4.93.76 1.77 0 3-.42 3.7-1.34.66-.67.82-1.5.66-2.44-.32-2.1-2.83-4.36-7.83-7.22l3.54-25.12.16-1.17z" stroke="#000" stroke-opacity="0" fill="#fff"/><g><use xlink:href="#J" transform="matrix(1,0,0,1,-2230,1189) translate(10.768229166666686 21.52777777777778)"/><use xlink:href="#E" transform="matrix(1,0,0,1,-2230,1189) translate(93.59157986111111 21.52777777777778)"/></g><path d="M-1840.5 1120h-223.12" stroke="#3a414a" fill="none"/><path d="M-1840 1120.47h-.5v-.94h.5z" stroke="#3a414a" stroke-width=".05" fill="#3a414a"/><path d="M-2078.38 1120l14.26-4.63v9.27z" stroke="#3a414a" fill="#3a414a"/><path d="M-2020 1066a6 6 0 0 1 6-6h168a6 6 0 0 1 6 6v28a6 6 0 0 1-6 6h-168a6 6 0 0 1-6-6z" fill="none"/><g><use xlink:href="#K" transform="matrix(1,0,0,1,-2020,1060) translate(31.57986111111112 21.52777777777778)"/><use xlink:href="#G" transform="matrix(1,0,0,1,-2020,1060) translate(71.84678819444446 21.52777777777778)"/><use xlink:href="#L" transform="matrix(1,0,0,1,-2020,1060) translate(43.054470486111114 53.79340277777778)"/><use xlink:href="#M" transform="matrix(1,0,0,1,-2020,1060) translate(111.48980034722223 53.79340277777778)"/></g><g><path d="M-1526.74 678.14a.1.1 0 0 0-.02-.14l-300.2-221.96a.1.1 0 0 0-.13.02.1.1 0 0 0 .03.14l300.2 221.96a.1.1 0 0 0 .13-.02z" fill="none"/><path d="M-1529.65 682.08l-157.48-122.48a.71.71 0 0 0-1 1l16.6 20.87a.71.71 0 0 1-1 1l-148-115.1" stroke="#000" stroke-width="2" fill="none"/><path d="M-1817.46 463.42l-6.14 7.9-4.82-10.1z" stroke="#000" stroke-width="2"/></g><g><use xlink:href="#N" transform="matrix(0.8040715535111472,0.5945325363965964,-0.5945325363965964,0.8040715535111472,-1824.9319471468714,469.9656831315219) translate(70.67404513888889 21.52777777777778)"/><use xlink:href="#O" transform="matrix(0.8040715535111472,0.5945325363965964,-0.5945325363965964,0.8040715535111472,-1824.9319471468714,469.9656831315219) translate(125.81727430555554 21.52777777777778)"/><use xlink:href="#P" transform="matrix(0.8040715535111472,0.5945325363965964,-0.5945325363965964,0.8040715535111472,-1824.9319471468714,469.9656831315219) translate(179.88628472222223 21.52777777777778)"/><use xlink:href="#E" transform="matrix(0.8040715535111472,0.5945325363965964,-0.5945325363965964,0.8040715535111472,-1824.9319471468714,469.9656831315219) translate(207.68576388888889 21.52777777777778)"/></g><path d="M-620 573.5a6 6 0 0 1 6-6h228a6 6 0 0 1 6 6v48a6 6 0 0 1-6 6h-228a6 6 0 0 1-6-6z" fill="none"/><g><use xlink:href="#Q" transform="matrix(1,0,0,1,-620,567.5) translate(73.33658854166667 38.083767361111114)"/><use xlink:href="#R" transform="matrix(1,0,0,1,-620,567.5) translate(127.90473090277777 38.083767361111114)"/></g><defs><path d="M538 24C308 24 148-78 108-271l171-41c32 123 123 178 257 178 156 0 256-77 256-169 0-77-54-128-164-154l-186-44c-203-48-300-148-300-305 0-192 176-326 414-326 230 0 351 112 402 269l-163 42c-31-80-94-158-238-158-133 0-233 69-233 162 0 83 57 129 188 160l169 40c203 48 298 149 298 302 0 196-179 339-441 339" id="S"/><path d="M598-1118v154H368v674c0 100 37 144 132 144 23 0 62-6 92-12L629-6c-37 13-88 20-134 20-193 0-307-107-307-290v-688H20v-154h168v-266h180v266h230" id="T"/><path d="M471 26C259 26 90-98 90-318c0-256 228-303 435-329 202-27 287-16 287-108 0-139-79-219-234-219-161 0-248 86-283 164l-173-57c86-203 278-265 451-265 150 0 419 46 419 395V0H815v-152h-12C765-73 660 26 471 26zm31-159c199 0 310-134 310-271v-155c-30 35-226 55-295 64-131 17-246 59-246 186 0 116 97 176 231 176" id="U"/><path d="M158 0v-1118h180V0H158zm91-1301c-68 0-125-53-125-119s57-119 125-119c69 0 126 53 126 119s-57 119-126 119" id="V"/><path d="M613 24c-304 0-509-231-509-576 0-350 205-580 509-580 216 0 392 114 453 309l-173 49c-33-115-133-197-280-197-223 0-326 196-326 419 0 220 103 415 326 415 150 0 252-85 285-206l172 49C1010-95 832 24 613 24" id="W"/><g id="a"><use transform="matrix(0.010850694444444444,0,0,0.010850694444444444,0,0)" xlink:href="#S"/><use transform="matrix(0.010850694444444444,0,0,0.010850694444444444,11.729600694444445,0)" xlink:href="#T"/><use transform="matrix(0.010850694444444444,0,0,0.010850694444444444,19.108072916666668,0)" xlink:href="#U"/><use transform="matrix(0.010850694444444444,0,0,0.010850694444444444,31.586371527777775,0)" xlink:href="#T"/><use transform="matrix(0.010850694444444444,0,0,0.010850694444444444,38.85633680555556,0)" xlink:href="#V"/><use transform="matrix(0.010850694444444444,0,0,0.010850694444444444,44.23828125,0)" xlink:href="#W"/></g><path d="M678-1118v154H420V0H240v-964H20v-154h220v-149c0-194 155-293 318-293 85 0 141 18 168 30l-50 154c-19-6-47-17-97-17-111 0-159 58-159 166v109h258" id="X"/><path d="M338-1490V0H158v-1490h180" id="Y"/><path d="M628 24c-324 0-524-230-524-574 0-343 198-582 503-582 237 0 487 146 487 559v75H286c9 234 145 362 343 362 132 0 231-58 273-172l174 48C1024-91 857 24 628 24zM287-650h624c-17-190-120-322-304-322-192 0-309 151-320 322" id="Z"/><g id="b"><use transform="matrix(0.010850694444444444,0,0,0.010850694444444444,0,0)" xlink:href="#X"/><use transform="matrix(0.010850694444444444,0,0,0.010850694444444444,8.22482638888889,0)" xlink:href="#V"/><use transform="matrix(0.010850694444444444,0,0,0.010850694444444444,13.606770833333332,0)" xlink:href="#Y"/><use transform="matrix(0.010850694444444444,0,0,0.010850694444444444,18.98871527777778,0)" xlink:href="#Z"/><use transform="matrix(0.010850694444444444,0,0,0.010850694444444444,31.944444444444443,0)" xlink:href="#S"/></g><path d="M218-607c0-325 108-727 258-974h175c-155 315-250 682-250 974 0 265 78 531 250 886H476C306-10 218-315 218-607" id="aa"/><path d="M52 0l541-1490h220L1361 0h-200l-149-416H398L254 0H52zm404-582h497c-103-290-145-390-251-756-108 377-145 460-246 756" id="ab"/><path d="M158 0v-1118h175l1 205c55-151 181-225 313-225 147 0 245 90 285 228 53-141 190-228 352-228 194 0 352 125 352 384V0h-181v-749c0-161-105-225-225-225-151 0-243 103-243 244V0H807v-767c0-124-93-207-219-207-131 0-250 92-250 270V0H158" id="ac"/><path d="M126 0v-134l627-806v-11H146v-167h839v143L376-178v11h629V0H126" id="ad"/><path d="M613 24c-304 0-509-231-509-576 0-350 205-580 509-580 305 0 511 230 511 580 0 345-206 576-511 576zm0-161c226 0 329-195 329-415 0-222-103-419-329-419-223 0-326 196-326 419 0 220 103 415 326 415" id="ae"/><path d="M338-670V0H158v-1118h173l1 207c72-158 192-221 342-221 226 0 378 139 378 422V0H872v-695c0-172-96-275-252-275-161 0-282 109-282 300" id="af"/><g id="c"><use transform="matrix(0.010850694444444444,0,0,0.010850694444444444,0,0)" xlink:href="#aa"/><use transform="matrix(0.010850694444444444,0,0,0.010850694444444444,8.10546875,0)" xlink:href="#ab"/><use transform="matrix(0.010850694444444444,0,0,0.010850694444444444,23.4375,0)" xlink:href="#ac"/><use transform="matrix(0.010850694444444444,0,0,0.010850694444444444,42.90364583333333,0)" xlink:href="#U"/><use transform="matrix(0.010850694444444444,0,0,0.010850694444444444,55.38194444444444,0)" xlink:href="#ad"/><use transform="matrix(0.010850694444444444,0,0,0.010850694444444444,67.32855902777777,0)" xlink:href="#ae"/><use transform="matrix(0.010850694444444444,0,0,0.010850694444444444,80.65321180555554,0)" xlink:href="#af"/></g><path d="M657 26c-323 0-524-166-541-416h195c15 169 171 246 346 246 202 0 356-106 356-265 5-203-294-238-475-293-239-73-380-191-380-389 0-252 224-419 512-419 294 0 499 171 508 396H992c-17-145-151-228-328-228-193 0-321 102-321 242 0 156 175 211 284 241l149 41c160 44 422 134 422 412 0 244-197 432-541 432" id="ag"/><path d="M635 20c-292 0-500-160-510-396h192c11 142 145 229 315 229 187 0 323-105 323-260 0-161-125-274-346-274H488v-165h121c174 0 294-100 294-254 0-148-104-245-266-245-152 0-291 85-297 230H157c8-234 222-395 484-395 278 0 448 188 448 400 0 168-95 291-247 336v12c190 31 301 169 301 357 0 244-216 425-508 425" id="ah"/><path d="M96 279C273-86 346-350 346-607c0-292-95-659-250-974h175c150 246 258 650 258 974 0 297-91 602-258 886H96" id="ai"/><g id="d"><use transform="matrix(0.010850694444444444,0,0,0.010850694444444444,0,0)" xlink:href="#ag"/><use transform="matrix(0.010850694444444444,0,0,0.010850694444444444,14.2578125,0)" xlink:href="#ah"/><use transform="matrix(0.010850694444444444,0,0,0.010850694444444444,27.98394097222222,0)" xlink:href="#ai"/></g><g id="e"><use transform="matrix(0.010850694444444444,0,0,0.010850694444444444,0,0)" xlink:href="#ab"/><use transform="matrix(0.010850694444444444,0,0,0.010850694444444444,15.33203125,0)" xlink:href="#ac"/><use transform="matrix(0.010850694444444444,0,0,0.010850694444444444,34.79817708333333,0)" xlink:href="#U"/><use transform="matrix(0.010850694444444444,0,0,0.010850694444444444,47.27647569444444,0)" xlink:href="#ad"/><use transform="matrix(0.010850694444444444,0,0,0.010850694444444444,59.22309027777778,0)" xlink:href="#ae"/><use transform="matrix(0.010850694444444444,0,0,0.010850694444444444,72.54774305555554,0)" xlink:href="#af"/></g><path d="M783 20c-382 0-661-292-661-764 0-473 279-766 661-766 302 0 548 182 601 489h-190c-42-204-217-313-411-313-268 0-476 208-476 590 0 381 209 588 476 588 195 0 369-110 411-313h190c-52 303-296 489-601 489" id="aj"/><path d="M537 14c-226 0-379-139-379-422v-710h180v695c0 172 97 275 253 275 160 0 281-109 281-300v-670h181V0H879v-209C806-46 684 14 537 14" id="ak"/><path d="M577 24c-279 0-473-224-473-580 0-354 195-576 474-576 218 0 287 134 324 193h14v-551h180V0H922v-173h-20C865-111 790 24 577 24zm27-161c203 0 314-172 314-421 0-247-108-413-314-413-212 0-317 181-317 413 0 235 108 421 317 421" id="al"/><path d="M180 0v-1490h901v168H370v510h643v168H370V0H180" id="am"/><path d="M158 0v-1118h174v172h12c41-113 157-188 290-188 26 0 70 2 91 3v181c-11-2-60-10-108-10-161 0-279 109-279 260V0H158" id="an"/><g id="f"><use transform="matrix(0.010850694444444444,0,0,0.010850694444444444,0,0)" xlink:href="#aj"/><use transform="matrix(0.010850694444444444,0,0,0.010850694444444444,16.23263888888889,0)" xlink:href="#Y"/><use transform="matrix(0.010850694444444444,0,0,0.010850694444444444,21.614583333333336,0)" xlink:href="#ae"/><use transform="matrix(0.010850694444444444,0,0,0.010850694444444444,34.939236111111114,0)" xlink:href="#ak"/><use transform="matrix(0.010850694444444444,0,0,0.010850694444444444,48.07942708333333,0)" xlink:href="#al"/><use transform="matrix(0.010850694444444444,0,0,0.010850694444444444,61.68619791666667,0)" xlink:href="#am"/><use transform="matrix(0.010850694444444444,0,0,0.010850694444444444,74.15364583333334,0)" xlink:href="#an"/><use transform="matrix(0.010850694444444444,0,0,0.010850694444444444,82.1506076388889,0)" xlink:href="#ae"/><use transform="matrix(0.010850694444444444,0,0,0.010850694444444444,95.47526041666666,0)" xlink:href="#af"/><use transform="matrix(0.010850694444444444,0,0,0.010850694444444444,108.60460069444444,0)" xlink:href="#T"/></g><path d="M763 24c-353 0-583-224-583-531v-983h190v968c0 214 149 370 393 370 243 0 391-156 391-370v-968h190v983c0 307-230 531-581 531" id="ao"/><g id="g"><use transform="matrix(0.010850694444444444,0,0,0.010850694444444444,0,0)" xlink:href="#ao"/><use transform="matrix(0.010850694444444444,0,0,0.010850694444444444,16.536458333333332,0)" xlink:href="#S"/><use transform="matrix(0.010850694444444444,0,0,0.010850694444444444,28.266059027777775,0)" xlink:href="#Z"/><use transform="matrix(0.010850694444444444,0,0,0.010850694444444444,41.22178819444444,0)" xlink:href="#an"/></g><g id="h"><use transform="matrix(0.010850694444444444,0,0,0.010850694444444444,0,0)" xlink:href="#ab"/><use transform="matrix(0.010850694444444444,0,0,0.010850694444444444,15.33203125,0)" xlink:href="#ac"/><use transform="matrix(0.010850694444444444,0,0,0.010850694444444444,34.79817708333333,0)" xlink:href="#U"/><use transform="matrix(0.010850694444444444,0,0,0.010850694444444444,47.27647569444444,0)" xlink:href="#ad"/><use transform="matrix(0.010850694444444444,0,0,0.010850694444444444,59.22309027777778,0)" xlink:href="#ae"/><use transform="matrix(0.010850694444444444,0,0,0.010850694444444444,72.54774305555554,0)" xlink:href="#af"/></g><path d="M611 442c-248 0-391-105-460-228l146-94c47 65 117 165 314 165 178 0 307-82 307-266v-224h-17C863-141 792-18 576-18c-268 0-472-195-472-546 0-346 197-568 476-568 216 0 288 133 326 193h17v-179h175V29c0 289-215 413-487 413zm-5-620c203 0 314-146 314-390 0-237-108-403-314-403-213 0-319 180-319 403 0 230 109 390 319 390" id="ap"/><g id="i"><use transform="matrix(0.010850694444444444,0,0,0.010850694444444444,0,0)" xlink:href="#aj"/><use transform="matrix(0.010850694444444444,0,0,0.010850694444444444,16.23263888888889,0)" xlink:href="#ae"/><use transform="matrix(0.010850694444444444,0,0,0.010850694444444444,29.557291666666664,0)" xlink:href="#ap"/><use transform="matrix(0.010850694444444444,0,0,0.010850694444444444,43.185763888888886,0)" xlink:href="#af"/><use transform="matrix(0.010850694444444444,0,0,0.010850694444444444,56.315104166666664,0)" xlink:href="#V"/><use transform="matrix(0.010850694444444444,0,0,0.010850694444444444,61.69704861111111,0)" xlink:href="#T"/><use transform="matrix(0.010850694444444444,0,0,0.010850694444444444,68.75,0)" xlink:href="#ae"/></g><path d="M180 0v-1490h510c348 0 508 194 508 460 0 198-88 351-276 417L1256 0h-220L726-579c-117 2-238 0-356 1V0H180zm190-747h312c235 0 327-108 327-283 0-177-92-293-329-293H370v576" id="aq"/><g id="j"><use transform="matrix(0.010850694444444444,0,0,0.010850694444444444,0,0)" xlink:href="#aq"/><use transform="matrix(0.010850694444444444,0,0,0.010850694444444444,13.975694444444445,0)" xlink:href="#Z"/><use transform="matrix(0.010850694444444444,0,0,0.010850694444444444,26.931423611111104,0)" xlink:href="#al"/><use transform="matrix(0.010850694444444444,0,0,0.010850694444444444,40.53819444444444,0)" xlink:href="#V"/><use transform="matrix(0.010850694444444444,0,0,0.010850694444444444,45.920138888888886,0)" xlink:href="#an"/><use transform="matrix(0.010850694444444444,0,0,0.010850694444444444,53.917100694444436,0)" xlink:href="#Z"/><use transform="matrix(0.010850694444444444,0,0,0.010850694444444444,66.8728298611111,0)" xlink:href="#W"/><use transform="matrix(0.010850694444444444,0,0,0.010850694444444444,79.5681423611111,0)" xlink:href="#T"/></g><g id="k"><use transform="matrix(0.010850694444444444,0,0,0.010850694444444444,0,0)" xlink:href="#T"/><use transform="matrix(0.010850694444444444,0,0,0.010850694444444444,7.052951388888888,0)" xlink:href="#ae"/></g><path d="M338-670V0H158v-1490h180v566c73-149 190-208 336-208 226 0 379 139 379 422V0H872v-695c0-172-96-275-252-275-161 0-282 109-282 300" id="ar"/><g id="l"><use transform="matrix(0.010850694444444444,0,0,0.010850694444444444,0,0)" xlink:href="#ab"/><use transform="matrix(0.010850694444444444,0,0,0.010850694444444444,15.33203125,0)" xlink:href="#ak"/><use transform="matrix(0.010850694444444444,0,0,0.010850694444444444,28.47222222222222,0)" xlink:href="#T"/><use transform="matrix(0.010850694444444444,0,0,0.010850694444444444,35.7421875,0)" xlink:href="#ar"/></g><linearGradient gradientUnits="userSpaceOnUse" id="m" x1="-740" y1="532.5" x2="-640" y2="627.5"><stop offset="0%" stop-color="#5b738b"/><stop offset="100%" stop-color="#223548"/></linearGradient><path d="M180 0v-1490h190v644h782v-644h190V0h-190v-678H370V0H180" id="as"/><g id="n"><use transform="matrix(0.010850694444444444,0,0,0.010850694444444444,0,0)" xlink:href="#as"/><use transform="matrix(0.010850694444444444,0,0,0.010850694444444444,16.514756944444443,0)" xlink:href="#ae"/><use transform="matrix(0.010850694444444444,0,0,0.010850694444444444,29.83940972222222,0)" xlink:href="#ac"/><use transform="matrix(0.010850694444444444,0,0,0.010850694444444444,49.30555555555556,0)" xlink:href="#Z"/></g><path d="M180 0v-1490h510c348 0 508 209 508 474 0 266-160 477-507 477H370V0H180zm190-706h312c236 0 327-133 327-310 0-176-91-307-329-307H370v617" id="at"/><g id="o"><use transform="matrix(0.010850694444444444,0,0,0.010850694444444444,0,0)" xlink:href="#at"/><use transform="matrix(0.010850694444444444,0,0,0.010850694444444444,14.192708333333332,0)" xlink:href="#U"/><use transform="matrix(0.010850694444444444,0,0,0.010850694444444444,26.671006944444443,0)" xlink:href="#ap"/><use transform="matrix(0.010850694444444444,0,0,0.010850694444444444,40.299479166666664,0)" xlink:href="#Z"/></g><g id="p"><use transform="matrix(0.010850694444444444,0,0,0.010850694444444444,0,0)" xlink:href="#ab"/><use transform="matrix(0.010850694444444444,0,0,0.010850694444444444,15.33203125,0)" xlink:href="#W"/><use transform="matrix(0.010850694444444444,0,0,0.010850694444444444,28.02734375,0)" xlink:href="#W"/><use transform="matrix(0.010850694444444444,0,0,0.010850694444444444,40.72265625,0)" xlink:href="#Z"/><use transform="matrix(0.010850694444444444,0,0,0.010850694444444444,53.678385416666664,0)" xlink:href="#S"/><use transform="matrix(0.010850694444444444,0,0,0.010850694444444444,65.40798611111111,0)" xlink:href="#S"/></g><g id="q"><use transform="matrix(0.010850694444444444,0,0,0.010850694444444444,0,0)" xlink:href="#as"/><use transform="matrix(0.010850694444444444,0,0,0.010850694444444444,16.514756944444443,0)" xlink:href="#ae"/><use transform="matrix(0.010850694444444444,0,0,0.010850694444444444,29.83940972222222,0)" xlink:href="#ac"/><use transform="matrix(0.010850694444444444,0,0,0.010850694444444444,49.30555555555556,0)" xlink:href="#Z"/></g><path d="M789 20c-398 0-667-293-667-764 0-473 273-766 655-766 315 0 558 198 612 487h-196c-61-191-204-311-415-311-262 0-471 207-471 590 0 380 208 588 482 588 249 0 420-165 425-427H828v-166h572v163c0 370-256 606-611 606" id="au"/><g id="r"><use transform="matrix(0.010850694444444444,0,0,0.010850694444444444,0,0)" xlink:href="#au"/><use transform="matrix(0.010850694444444444,0,0,0.010850694444444444,16.57986111111111,0)" xlink:href="#Z"/><use transform="matrix(0.010850694444444444,0,0,0.010850694444444444,29.535590277777775,0)" xlink:href="#T"/></g><path d="M370-1490V0H180v-1490h190" id="av"/><g id="s"><use transform="matrix(0.010850694444444444,0,0,0.010850694444444444,0,0)" xlink:href="#av"/><use transform="matrix(0.010850694444444444,0,0,0.010850694444444444,5.967881944444445,0)" xlink:href="#ac"/><use transform="matrix(0.010850694444444444,0,0,0.010850694444444444,25.43402777777778,0)" xlink:href="#U"/><use transform="matrix(0.010850694444444444,0,0,0.010850694444444444,37.912326388888886,0)" xlink:href="#ap"/><use transform="matrix(0.010850694444444444,0,0,0.010850694444444444,51.54079861111111,0)" xlink:href="#Z"/><use transform="matrix(0.010850694444444444,0,0,0.010850694444444444,64.49652777777777,0)" xlink:href="#S"/></g><path d="M158 418v-1536h174v179h20c37-59 106-193 324-193 279 0 474 222 474 576 0 356-194 580-473 580-213 0-288-135-325-197h-14v591H158zm492-555c209 0 317-186 317-421 0-232-105-413-317-413-206 0-314 166-314 413 0 249 111 421 314 421" id="aw"/><g id="t"><use transform="matrix(0.010850694444444444,0,0,0.010850694444444444,0,0)" xlink:href="#ao"/><use transform="matrix(0.010850694444444444,0,0,0.010850694444444444,16.536458333333332,0)" xlink:href="#aw"/><use transform="matrix(0.010850694444444444,0,0,0.010850694444444444,30.143229166666664,0)" xlink:href="#Y"/><use transform="matrix(0.010850694444444444,0,0,0.010850694444444444,35.52517361111111,0)" xlink:href="#ae"/><use transform="matrix(0.010850694444444444,0,0,0.010850694444444444,49.06684027777778,0)" xlink:href="#U"/><use transform="matrix(0.010850694444444444,0,0,0.010850694444444444,61.545138888888886,0)" xlink:href="#al"/></g><linearGradient gradientUnits="userSpaceOnUse" id="u" x1="-1160" y1="460" x2="-1040" y2="340"><stop offset="0%" stop-color="#b0084d"/><stop offset="100%" stop-color="#ff4f8b"/></linearGradient><path d="M692-1560L212 224H46l480-1784h166" id="ax"/><path d="M677 24c-213 0-288-135-325-197h-20V0H158v-1490h180v551h14c37-59 106-193 324-193 279 0 474 222 474 576 0 356-194 580-473 580zm-27-161c209 0 317-186 317-421 0-232-105-413-317-413-206 0-314 166-314 413 0 249 111 421 314 421" id="ay"/><path d="M157-1118h181V80c1 225-123 350-364 338V252c126 9 184-48 183-172v-1198zm91-183c-68 0-125-53-125-119s57-119 125-119c69 0 126 53 126 119s-57 119-126 119" id="az"/><path d="M750 279c-286 0-388-117-388-391v-228c1-158-59-222-218-220v-182c158 3 218-60 218-218v-230c0-273 102-391 388-391v151c-169-1-222 74-222 243v286c0 117-37 206-205 240v20c168 35 205 125 205 242v284c0 169 52 245 222 245v149" id="aA"/><path d="M123 279V130c170 0 222-76 222-245v-284c0-116 37-207 204-242v-20c-167-34-204-123-204-240v-286c0-168-52-243-222-243v-151c285 0 387 118 387 391v230c-1 158 57 219 219 219v180c-164 1-219 64-219 221v228c0 274-102 391-387 391" id="aB"/><g id="v"><use transform="matrix(0.010850694444444444,0,0,0.010850694444444444,0,0)" xlink:href="#ax"/><use transform="matrix(0.010850694444444444,0,0,0.010850694444444444,8.0078125,0)" xlink:href="#ap"/><use transform="matrix(0.010850694444444444,0,0,0.010850694444444444,21.63628472222222,0)" xlink:href="#Z"/><use transform="matrix(0.010850694444444444,0,0,0.010850694444444444,34.592013888888886,0)" xlink:href="#T"/><use transform="matrix(0.010850694444444444,0,0,0.010850694444444444,41.64496527777778,0)" xlink:href="#ae"/><use transform="matrix(0.010850694444444444,0,0,0.010850694444444444,54.96961805555556,0)" xlink:href="#ay"/><use transform="matrix(0.010850694444444444,0,0,0.010850694444444444,68.57638888888889,0)" xlink:href="#az"/><use transform="matrix(0.010850694444444444,0,0,0.010850694444444444,73.95833333333333,0)" xlink:href="#Z"/><use transform="matrix(0.010850694444444444,0,0,0.010850694444444444,86.9140625,0)" xlink:href="#W"/><use transform="matrix(0.010850694444444444,0,0,0.010850694444444444,99.609375,0)" xlink:href="#T"/><use transform="matrix(0.010850694444444444,0,0,0.010850694444444444,106.66232638888889,0)" xlink:href="#S"/><use transform="matrix(0.010850694444444444,0,0,0.010850694444444444,118.39192708333333,0)" xlink:href="#ax"/><use transform="matrix(0.010850694444444444,0,0,0.010850694444444444,126.39973958333333,0)" xlink:href="#aA"/><use transform="matrix(0.010850694444444444,0,0,0.010850694444444444,135.6228298611111,0)" xlink:href="#Z"/><use transform="matrix(0.010850694444444444,0,0,0.010850694444444444,148.57855902777774,0)" xlink:href="#ac"/><use transform="matrix(0.010850694444444444,0,0,0.010850694444444444,168.0447048611111,0)" xlink:href="#U"/><use transform="matrix(0.010850694444444444,0,0,0.010850694444444444,180.52300347222223,0)" xlink:href="#V"/><use transform="matrix(0.010850694444444444,0,0,0.010850694444444444,185.90494791666666,0)" xlink:href="#Y"/><use transform="matrix(0.010850694444444444,0,0,0.010850694444444444,191.28689236111111,0)" xlink:href="#aB"/></g><g id="w"><use transform="matrix(0.010850694444444444,0,0,0.010850694444444444,0,0)" xlink:href="#X"/><use transform="matrix(0.010850694444444444,0,0,0.010850694444444444,8.22482638888889,0)" xlink:href="#ak"/><use transform="matrix(0.010850694444444444,0,0,0.010850694444444444,21.36501736111111,0)" xlink:href="#af"/><use transform="matrix(0.010850694444444444,0,0,0.010850694444444444,34.494357638888886,0)" xlink:href="#W"/><use transform="matrix(0.010850694444444444,0,0,0.010850694444444444,47.189670138888886,0)" xlink:href="#T"/><use transform="matrix(0.010850694444444444,0,0,0.010850694444444444,54.459635416666664,0)" xlink:href="#V"/><use transform="matrix(0.010850694444444444,0,0,0.010850694444444444,59.84157986111111,0)" xlink:href="#ae"/><use transform="matrix(0.010850694444444444,0,0,0.010850694444444444,73.16623263888889,0)" xlink:href="#af"/></g><g id="x"><use transform="matrix(0.010850694444444444,0,0,0.010850694444444444,0,0)" xlink:href="#ap"/><use transform="matrix(0.010850694444444444,0,0,0.010850694444444444,13.628472222222221,0)" xlink:href="#Z"/><use transform="matrix(0.010850694444444444,0,0,0.010850694444444444,26.58420138888889,0)" xlink:href="#T"/></g><path d="M481 0L54-1118h197c107 314 236 620 325 951 87-331 217-637 324-951h197L670 0H481" id="aC"/><path d="M158 0v-1490h180v865h22l478-493h223L593-638 1096 0H865L456-523 338-412V0H158" id="aD"/><g id="y"><use transform="matrix(0.010850694444444444,0,0,0.010850694444444444,0,0)" xlink:href="#V"/><use transform="matrix(0.010850694444444444,0,0,0.010850694444444444,5.381944444444445,0)" xlink:href="#af"/><use transform="matrix(0.010850694444444444,0,0,0.010850694444444444,18.18576388888889,0)" xlink:href="#aC"/><use transform="matrix(0.010850694444444444,0,0,0.010850694444444444,30.240885416666664,0)" xlink:href="#ae"/><use transform="matrix(0.010850694444444444,0,0,0.010850694444444444,43.56553819444444,0)" xlink:href="#aD"/><use transform="matrix(0.010850694444444444,0,0,0.010850694444444444,55.26258680555556,0)" xlink:href="#Z"/></g><path d="M645 0H180v-1490h484c435 0 692 280 692 742 0 466-257 748-711 748zM370-168h263c363 0 539-218 539-580 0-358-176-574-521-574H370v1154" id="aE"/><path d="M140 405l46-156c120 36 205 19 263-150l32-93L54-1118h197c107 313 237 620 324 950 87-331 219-637 326-950h196L606 167c-68 178-176 259-334 259-64 0-113-12-132-21" id="aF"/><path d="M180 0v-1490h528c311 0 458 177 458 395 0 191-114 278-244 313v14c139 9 302 137 302 371 0 225-148 397-499 397H180zm190-168h350c232 0 321-102 321-231 0-149-120-277-311-277H370v508zm0-668h328c160 0 286-101 286-255 0-129-87-231-280-231H370v486" id="aG"/><g id="z"><use transform="matrix(0.010850694444444444,0,0,0.010850694444444444,0,0)" xlink:href="#aE"/><use transform="matrix(0.010850694444444444,0,0,0.010850694444444444,16.03732638888889,0)" xlink:href="#aF"/><use transform="matrix(0.010850694444444444,0,0,0.010850694444444444,28.526475694444443,0)" xlink:href="#af"/><use transform="matrix(0.010850694444444444,0,0,0.010850694444444444,41.65581597222222,0)" xlink:href="#U"/><use transform="matrix(0.010850694444444444,0,0,0.010850694444444444,54.13411458333333,0)" xlink:href="#ac"/><use transform="matrix(0.010850694444444444,0,0,0.010850694444444444,73.60026041666666,0)" xlink:href="#ae"/><use transform="matrix(0.010850694444444444,0,0,0.010850694444444444,86.92491319444443,0)" xlink:href="#aE"/><use transform="matrix(0.010850694444444444,0,0,0.010850694444444444,102.96223958333331,0)" xlink:href="#aG"/></g><linearGradient gradientUnits="userSpaceOnUse" id="A" x1="-1160" y1="800" x2="-1040" y2="680"><stop offset="0%" stop-color="#b0084d"/><stop offset="100%" stop-color="#ff4f8b"/></linearGradient><g id="B"><use transform="matrix(0.010850694444444444,0,0,0.010850694444444444,0,0)" xlink:href="#ax"/><use transform="matrix(0.010850694444444444,0,0,0.010850694444444444,8.0078125,0)" xlink:href="#ak"/><use transform="matrix(0.010850694444444444,0,0,0.010850694444444444,21.14800347222222,0)" xlink:href="#aw"/><use transform="matrix(0.010850694444444444,0,0,0.010850694444444444,34.75477430555556,0)" xlink:href="#Y"/><use transform="matrix(0.010850694444444444,0,0,0.010850694444444444,40.13671875,0)" xlink:href="#ae"/><use transform="matrix(0.010850694444444444,0,0,0.010850694444444444,53.678385416666664,0)" xlink:href="#U"/><use transform="matrix(0.010850694444444444,0,0,0.010850694444444444,66.15668402777777,0)" xlink:href="#al"/></g><g id="C"><use transform="matrix(0.010850694444444444,0,0,0.010850694444444444,0,0)" xlink:href="#ak"/><use transform="matrix(0.010850694444444444,0,0,0.010850694444444444,13.140190972222221,0)" xlink:href="#aw"/><use transform="matrix(0.010850694444444444,0,0,0.010850694444444444,26.746961805555554,0)" xlink:href="#Y"/><use transform="matrix(0.010850694444444444,0,0,0.010850694444444444,32.12890625,0)" xlink:href="#ae"/><use transform="matrix(0.010850694444444444,0,0,0.010850694444444444,45.670572916666664,0)" xlink:href="#U"/><use transform="matrix(0.010850694444444444,0,0,0.010850694444444444,58.14887152777778,0)" xlink:href="#al"/></g><g id="D"><use transform="matrix(0.010850694444444444,0,0,0.010850694444444444,0,0)" xlink:href="#ae"/><use transform="matrix(0.010850694444444444,0,0,0.010850694444444444,13.324652777777777,0)" xlink:href="#an"/><use transform="matrix(0.010850694444444444,0,0,0.010850694444444444,22.037760416666664,0)" xlink:href="#V"/><use transform="matrix(0.010850694444444444,0,0,0.010850694444444444,27.419704861111104,0)" xlink:href="#ap"/><use transform="matrix(0.010850694444444444,0,0,0.010850694444444444,41.04817708333333,0)" xlink:href="#V"/><use transform="matrix(0.010850694444444444,0,0,0.010850694444444444,46.43012152777778,0)" xlink:href="#af"/><use transform="matrix(0.010850694444444444,0,0,0.010850694444444444,59.55946180555555,0)" xlink:href="#U"/><use transform="matrix(0.010850694444444444,0,0,0.010850694444444444,72.03776041666666,0)" xlink:href="#Y"/></g><g id="E"><use transform="matrix(0.010850694444444444,0,0,0.010850694444444444,0,0)" xlink:href="#V"/><use transform="matrix(0.010850694444444444,0,0,0.010850694444444444,5.381944444444445,0)" xlink:href="#ac"/><use transform="matrix(0.010850694444444444,0,0,0.010850694444444444,24.84809027777778,0)" xlink:href="#U"/><use transform="matrix(0.010850694444444444,0,0,0.010850694444444444,37.326388888888886,0)" xlink:href="#ap"/><use transform="matrix(0.010850694444444444,0,0,0.010850694444444444,50.95486111111111,0)" xlink:href="#Z"/><use transform="matrix(0.010850694444444444,0,0,0.010850694444444444,63.91059027777778,0)" xlink:href="#S"/></g><g id="F"><use transform="matrix(0.010850694444444444,0,0,0.010850694444444444,0,0)" xlink:href="#ak"/><use transform="matrix(0.010850694444444444,0,0,0.010850694444444444,13.140190972222221,0)" xlink:href="#aw"/><use transform="matrix(0.010850694444444444,0,0,0.010850694444444444,26.746961805555554,0)" xlink:href="#Y"/><use transform="matrix(0.010850694444444444,0,0,0.010850694444444444,32.12890625,0)" xlink:href="#ae"/><use transform="matrix(0.010850694444444444,0,0,0.010850694444444444,45.670572916666664,0)" xlink:href="#U"/><use transform="matrix(0.010850694444444444,0,0,0.010850694444444444,58.14887152777778,0)" xlink:href="#al"/></g><g id="G"><use transform="matrix(0.010850694444444444,0,0,0.010850694444444444,0,0)" xlink:href="#an"/><use transform="matrix(0.010850694444444444,0,0,0.010850694444444444,7.996961805555555,0)" xlink:href="#Z"/><use transform="matrix(0.010850694444444444,0,0,0.010850694444444444,20.95269097222222,0)" xlink:href="#S"/><use transform="matrix(0.010850694444444444,0,0,0.010850694444444444,32.682291666666664,0)" xlink:href="#V"/><use transform="matrix(0.010850694444444444,0,0,0.010850694444444444,38.06423611111111,0)" xlink:href="#ad"/><use transform="matrix(0.010850694444444444,0,0,0.010850694444444444,50.010850694444436,0)" xlink:href="#Z"/><use transform="matrix(0.010850694444444444,0,0,0.010850694444444444,62.9665798611111,0)" xlink:href="#al"/></g><g id="H"><use transform="matrix(0.010850694444444444,0,0,0.010850694444444444,0,0)" xlink:href="#V"/><use transform="matrix(0.010850694444444444,0,0,0.010850694444444444,5.381944444444445,0)" xlink:href="#ac"/><use transform="matrix(0.010850694444444444,0,0,0.010850694444444444,24.84809027777778,0)" xlink:href="#U"/><use transform="matrix(0.010850694444444444,0,0,0.010850694444444444,37.326388888888886,0)" xlink:href="#ap"/><use transform="matrix(0.010850694444444444,0,0,0.010850694444444444,50.95486111111111,0)" xlink:href="#Z"/></g><g id="I"><use transform="matrix(0.010850694444444444,0,0,0.010850694444444444,0,0)" xlink:href="#T"/><use transform="matrix(0.010850694444444444,0,0,0.010850694444444444,7.269965277777778,0)" xlink:href="#an"/><use transform="matrix(0.010850694444444444,0,0,0.010850694444444444,15.983072916666666,0)" xlink:href="#V"/><use transform="matrix(0.010850694444444444,0,0,0.010850694444444444,21.36501736111111,0)" xlink:href="#ap"/><use transform="matrix(0.010850694444444444,0,0,0.010850694444444444,34.99348958333333,0)" xlink:href="#ap"/><use transform="matrix(0.010850694444444444,0,0,0.010850694444444444,48.62196180555556,0)" xlink:href="#Z"/><use transform="matrix(0.010850694444444444,0,0,0.010850694444444444,61.57769097222221,0)" xlink:href="#an"/></g><g id="J"><use transform="matrix(0.010850694444444444,0,0,0.010850694444444444,0,0)" xlink:href="#an"/><use transform="matrix(0.010850694444444444,0,0,0.010850694444444444,7.996961805555555,0)" xlink:href="#Z"/><use transform="matrix(0.010850694444444444,0,0,0.010850694444444444,20.95269097222222,0)" xlink:href="#S"/><use transform="matrix(0.010850694444444444,0,0,0.010850694444444444,32.682291666666664,0)" xlink:href="#V"/><use transform="matrix(0.010850694444444444,0,0,0.010850694444444444,38.06423611111111,0)" xlink:href="#ad"/><use transform="matrix(0.010850694444444444,0,0,0.010850694444444444,50.010850694444436,0)" xlink:href="#Z"/><use transform="matrix(0.010850694444444444,0,0,0.010850694444444444,62.9665798611111,0)" xlink:href="#al"/></g><g id="K"><use transform="matrix(0.010850694444444444,0,0,0.010850694444444444,0,0)" xlink:href="#aw"/><use transform="matrix(0.010850694444444444,0,0,0.010850694444444444,13.606770833333332,0)" xlink:href="#ak"/><use transform="matrix(0.010850694444444444,0,0,0.010850694444444444,26.746961805555554,0)" xlink:href="#T"/></g><g id="L"><use transform="matrix(0.010850694444444444,0,0,0.010850694444444444,0,0)" xlink:href="#V"/><use transform="matrix(0.010850694444444444,0,0,0.010850694444444444,5.381944444444445,0)" xlink:href="#af"/><use transform="matrix(0.010850694444444444,0,0,0.010850694444444444,18.51128472222222,0)" xlink:href="#S"/><use transform="matrix(0.010850694444444444,0,0,0.010850694444444444,30.240885416666664,0)" xlink:href="#V"/><use transform="matrix(0.010850694444444444,0,0,0.010850694444444444,35.62282986111111,0)" xlink:href="#al"/><use transform="matrix(0.010850694444444444,0,0,0.010850694444444444,49.22960069444444,0)" xlink:href="#Z"/></g><g id="M"><use transform="matrix(0.010850694444444444,0,0,0.010850694444444444,0,0)" xlink:href="#S"/><use transform="matrix(0.010850694444444444,0,0,0.010850694444444444,11.729600694444445,0)" xlink:href="#ah"/></g><g id="N"><use transform="matrix(0.010850694444444444,0,0,0.010850694444444444,0,0)" xlink:href="#S"/><use transform="matrix(0.010850694444444444,0,0,0.010850694444444444,11.729600694444445,0)" xlink:href="#U"/><use transform="matrix(0.010850694444444444,0,0,0.010850694444444444,23.88237847222222,0)" xlink:href="#aC"/><use transform="matrix(0.010850694444444444,0,0,0.010850694444444444,35.9375,0)" xlink:href="#Z"/></g><g id="O"><use transform="matrix(0.010850694444444444,0,0,0.010850694444444444,0,0)" xlink:href="#Y"/><use transform="matrix(0.010850694444444444,0,0,0.010850694444444444,5.381944444444445,0)" xlink:href="#V"/><use transform="matrix(0.010850694444444444,0,0,0.010850694444444444,10.76388888888889,0)" xlink:href="#af"/><use transform="matrix(0.010850694444444444,0,0,0.010850694444444444,23.893229166666664,0)" xlink:href="#aD"/><use transform="matrix(0.010850694444444444,0,0,0.010850694444444444,36.08940972222222,0)" xlink:href="#S"/></g><g id="P"><use transform="matrix(0.010850694444444444,0,0,0.010850694444444444,0,0)" xlink:href="#ae"/><use transform="matrix(0.010850694444444444,0,0,0.010850694444444444,13.324652777777777,0)" xlink:href="#X"/></g><g id="Q"><use transform="matrix(0.010850694444444444,0,0,0.010850694444444444,0,0)" xlink:href="#U"/><use transform="matrix(0.010850694444444444,0,0,0.010850694444444444,12.47829861111111,0)" xlink:href="#X"/><use transform="matrix(0.010850694444444444,0,0,0.010850694444444444,19.94357638888889,0)" xlink:href="#T"/><use transform="matrix(0.010850694444444444,0,0,0.010850694444444444,26.99652777777778,0)" xlink:href="#Z"/><use transform="matrix(0.010850694444444444,0,0,0.010850694444444444,39.95225694444444,0)" xlink:href="#an"/></g><g id="R"><use transform="matrix(0.010850694444444444,0,0,0.010850694444444444,0,0)" xlink:href="#U"/><use transform="matrix(0.010850694444444444,0,0,0.010850694444444444,12.47829861111111,0)" xlink:href="#ak"/><use transform="matrix(0.010850694444444444,0,0,0.010850694444444444,25.618489583333332,0)" xlink:href="#ar"/></g></defs></g></svg>